<?xml version="1.0" encoding="utf-8"?>
<svg xmlns="http://www.w3.org/2000/svg" xmlns:xlink="http://www.w3.org/1999/xlink" style="margin: auto; background: none; display: block; shape-rendering: auto;" width="84px" height="84px" viewBox="0 0 100 100" preserveAspectRatio="xMidYMid">
<g transform="rotate(0 50 50)">
  <rect x="44.5" y="18.5" rx="5.5" ry="5.5" width="11" height="11" fill="#985d4e">
    <animate attributeName="opacity" values="1;0" keyTimes="0;1" dur="0.5555555555555556s" begin="-0.4938271604938272s" repeatCount="indefinite"></animate>
  </rect>
</g><g transform="rotate(40 50 50)">
  <rect x="44.5" y="18.5" rx="5.5" ry="5.5" width="11" height="11" fill="#985d4e">
    <animate attributeName="opacity" values="1;0" keyTimes="0;1" dur="0.5555555555555556s" begin="-0.4320987654320988s" repeatCount="indefinite"></animate>
  </rect>
</g><g transform="rotate(80 50 50)">
  <rect x="44.5" y="18.5" rx="5.5" ry="5.5" width="11" height="11" fill="#985d4e">
    <animate attributeName="opacity" values="1;0" keyTimes="0;1" dur="0.5555555555555556s" begin="-0.3703703703703704s" repeatCount="indefinite"></animate>
  </rect>
</g><g transform="rotate(120 50 50)">
  <rect x="44.5" y="18.5" rx="5.5" ry="5.5" width="11" height="11" fill="#985d4e">
    <animate attributeName="opacity" values="1;0" keyTimes="0;1" dur="0.5555555555555556s" begin="-0.308641975308642s" repeatCount="indefinite"></animate>
  </rect>
</g><g transform="rotate(160 50 50)">
  <rect x="44.5" y="18.5" rx="5.5" ry="5.5" width="11" height="11" fill="#985d4e">
    <animate attributeName="opacity" values="1;0" keyTimes="0;1" dur="0.5555555555555556s" begin="-0.2469135802469136s" repeatCount="indefinite"></animate>
  </rect>
</g><g transform="rotate(200 50 50)">
  <rect x="44.5" y="18.5" rx="5.5" ry="5.5" width="11" height="11" fill="#985d4e">
    <animate attributeName="opacity" values="1;0" keyTimes="0;1" dur="0.5555555555555556s" begin="-0.1851851851851852s" repeatCount="indefinite"></animate>
  </rect>
</g><g transform="rotate(240 50 50)">
  <rect x="44.5" y="18.5" rx="5.5" ry="5.5" width="11" height="11" fill="#985d4e">
    <animate attributeName="opacity" values="1;0" keyTimes="0;1" dur="0.5555555555555556s" begin="-0.1234567901234568s" repeatCount="indefinite"></animate>
  </rect>
</g><g transform="rotate(280 50 50)">
  <rect x="44.5" y="18.5" rx="5.5" ry="5.5" width="11" height="11" fill="#985d4e">
    <animate attributeName="opacity" values="1;0" keyTimes="0;1" dur="0.5555555555555556s" begin="-0.0617283950617284s" repeatCount="indefinite"></animate>
  </rect>
</g><g transform="rotate(320 50 50)">
  <rect x="44.5" y="18.5" rx="5.5" ry="5.5" width="11" height="11" fill="#985d4e">
    <animate attributeName="opacity" values="1;0" keyTimes="0;1" dur="0.5555555555555556s" begin="0s" repeatCount="indefinite"></animate>
  </rect>
</g>
<!-- [ldio] generated by https://loading.io/ --></svg>